<?xml version="1.0" encoding="UTF-8"?>
<svg width="404px" height="401px" viewBox="0 0 404 401" version="1.1" xmlns="http://www.w3.org/2000/svg" xmlns:xlink="http://www.w3.org/1999/xlink">
    <title>75996AED-3375-4395-ABFD-856400AA1140</title>
    <defs>
        <linearGradient x1="99.9231714%" y1="49.9853158%" x2="-0.119265069%" y2="49.9853158%" id="linearGradient-1">
            <stop stop-color="#3162AD" offset="0%"></stop>
            <stop stop-color="#6DAC44" offset="100%"></stop>
        </linearGradient>
    </defs>
    <g id="Landing-Page" stroke="none" stroke-width="1" fill="none" fill-rule="evenodd">
        <g id="Landing-Page---Desktop" transform="translate(-1344.000000, -249.000000)" fill="url(#linearGradient-1)" fill-rule="nonzero">
            <g id="Shape" transform="translate(1344.000000, 247.000000)">
                <path d="M238.52746,125.314556 L238.52746,47.2092928 C238.52746,30.1566612 245.480813,19.8408717 251.380628,14.3671875 C262.969549,3.41981908 278.351209,2.3671875 283.618901,2.3671875 C284.040316,2.3671875 284.461731,2.3671875 284.883147,2.3671875 L363.898523,2.3671875 L365.794892,2.3671875 C401.615195,4.47245066 403.93298,40.2619243 403.722272,55.2092928 L403.722272,343.840872 C407.093595,384.051398 379.069475,400.893503 357.788,402.156661 L355.680924,402.156661 L290.361546,402.156661 C251.591335,400.261924 239.791706,368.893503 238.948875,352.472451 L238.948875,351.840872 L238.948875,294.577714 C238.948875,282.78824 231.152691,279.840872 226.306415,279.209293 L168.361806,279.209293 C167.308268,279.209293 166.254729,279.209293 165.201191,279.419819 L165.201191,357.525082 C165.201191,374.577714 158.247838,384.893503 152.348023,390.367188 C139.705563,402.367188 122.427534,402.367188 118.845504,402.367188 L39.8301282,402.367188 L38.9872975,402.367188 C4.6419475,401.10403 -0.20432888,370.367188 0.00637878852,349.525082 L0.00637878852,60.682977 C-0.415036549,18.7882401 20.6557303,3.20929276 47.4156042,2.3671875 L48.2584349,2.3671875 L113.577812,2.3671875 C152.558731,3.20929276 164.779776,32.682977 164.990483,52.051398 L164.990483,52.682977 L164.990483,109.946135 C165.411899,122.998766 174.050913,125.525082 177.632943,125.314556 L235.366845,125.314556 L238.52746,125.314556 Z M235.275044,153.103106 L175.001606,153.103106 C161.72459,152.892246 137.067275,141.294944 137.067275,110.509379 L137.067275,53.5771692 C136.856528,47.2513681 132.009364,30.1717052 111.77772,29.9608452 L48.5538339,29.9608452 C36.7520418,30.8042853 26.2147274,36.9192264 26.4223655,59.0595301 L26.4223655,60.3246904 L26.4223655,351.73326 C26.63622,358.480781 24.9502497,374.506144 42.4421915,375.771304 L118.943094,375.771304 C121.261303,375.771304 128.426677,375.138724 132.641603,371.132384 C135.381304,368.391203 136.856528,364.174002 136.856528,358.059061 L136.856528,279.197408 C100.186674,275.823647 77.6368215,261.485165 69.6284626,236.39282 L68.7854775,233.65164 C65.6242831,217.837137 67.9424923,204.342095 75.7401049,193.377373 C87.1204045,177.14115 105.876824,173.76739 107.984287,173.34567 L109.248765,173.13481 C142.125185,168.706749 163.621307,192.955653 164.042799,213.409077 L164.042799,215.728537 L164.042799,252.207323 C164.885784,252.207323 165.518023,252.207323 166.361008,252.207323 L166.993247,252.207323 L226.845193,252.207323 C242.229672,253.261623 264.990271,265.491505 265.201017,294.80105 L265.201017,351.73326 C265.62251,355.950461 268.362212,374.084424 290.490572,375.349584 L353.714458,375.349584 C361.512071,375.138724 375.842818,370.921523 375.842818,346.250899 L375.842818,344.985739 L375.842818,53.5771692 C375.842818,49.9925486 376.685803,29.7499851 359.8261,29.5391251 L283.325198,29.5391251 C281.006989,29.5391251 273.841615,29.7499851 269.626689,33.7563258 C266.886988,36.4975063 265.411763,41.1364271 265.411763,47.0405081 L265.411763,126.323882 C302.081617,129.697642 324.63147,144.036125 332.639829,169.128469 L333.482814,171.869649 C336.644009,187.684152 333.482814,200.968334 326.528187,212.143916 C316.623111,227.958419 296.391468,231.7539 294.284005,232.17562 L293.019527,232.38648 C254.663703,235.54938 238.225492,212.565636 238.225492,192.112213 L238.225492,189.792753 L238.225492,153.313966 L235.275044,153.103106 Z M307.26652,176.878051 C307.26652,176.669358 307.26652,176.669358 307.05336,176.460665 C302.150687,161.643458 284.884748,155.382666 265.487213,153.087042 L265.487213,183.764922 C265.700372,196.286506 274.653081,207.138545 290.853221,203.799456 C292.771658,203.38207 300.445409,201.295139 304.708603,195.24304 C307.69284,190.651793 308.545479,184.599694 307.26652,176.878051 Z M111.41893,200.169898 C109.500492,200.59057 101.826742,202.693933 97.563547,208.793685 C94.5793107,213.210747 93.7266718,219.310499 95.0056302,227.092942 C95.0056302,227.303278 95.0056302,227.303278 95.2187899,227.513614 C100.121464,242.447491 117.387402,248.757579 136.784938,251.071278 L136.784938,220.362181 C136.358618,214.472765 131.669104,196.804517 111.41893,200.169898 Z" transform="translate(202.000000, 202.367188) rotate(-360.000000) translate(-202.000000, -202.367188) "></path>
            </g>
        </g>
    </g>
</svg>