<?xml version="1.0" encoding="UTF-8"?>
<svg width="185px" height="40px" viewBox="0 0 185 40" version="1.1" xmlns="http://www.w3.org/2000/svg" xmlns:xlink="http://www.w3.org/1999/xlink">
    <title>C58D47B6-ADCC-4F8D-B2CE-DD88005B1FCF</title>
    <defs>
        <linearGradient x1="99.9231714%" y1="49.9853158%" x2="-0.119265069%" y2="49.9853158%" id="linearGradient-1">
            <stop stop-color="#3162AD" offset="0%"></stop>
            <stop stop-color="#6DAC44" offset="100%"></stop>
        </linearGradient>
    </defs>
    <g id="Landing-Page" stroke="none" stroke-width="1" fill="none" fill-rule="evenodd">
        <g id="Landing-Page---Desktop" transform="translate(-371.000000, -24.000000)" fill-rule="nonzero">
            <g id="Navigation/Header/Lg">
                <g id="Logo/Honeysuckle-Health/Mark" transform="translate(371.000000, 24.000000)">
                    <g id="Layer_2">
                        <path d="M23.7074403,12.2931937 L23.7074403,4.52356021 C23.7074403,2.82722513 24.3985398,1.80104712 24.9849272,1.2565445 C26.1367596,0.167539267 27.6655555,0.0628272251 28.1891157,0.0628272251 C28.2310005,0.0628272251 28.2728853,0.0628272251 28.3147701,0.0628272251 L36.1681733,0.0628272251 L36.3566549,0.0628272251 C39.9168644,0.272251309 40.1472309,3.83246073 40.1262884,5.31937173 L40.1262884,34.0314136 C40.461367,38.0314136 37.6760267,39.7068063 35.5608434,39.8324607 L35.3514193,39.8324607 L28.8592727,39.8324607 C25.0058696,39.6439791 23.8330947,36.5235602 23.7493251,34.8900524 L23.7493251,34.8272251 L23.7493251,29.1308901 C23.7493251,27.9581152 22.974456,27.6649215 22.4927806,27.6020942 L16.7336183,27.6020942 C16.6289062,27.6020942 16.5241942,27.6020942 16.4194822,27.6230366 L16.4194822,35.3926702 C16.4194822,37.0890052 15.7283827,38.1151832 15.1419952,38.6596859 C13.8854507,39.8534031 12.1681733,39.8534031 11.8121523,39.8534031 L3.95874918,39.8534031 L3.87497954,39.8534031 C0.461366977,39.7277487 -0.0203084153,36.6701571 0.000633993034,34.5968586 L0.000633993034,5.86387435 C-0.0412508237,1.69633508 2.05299001,0.146596859 4.71267588,0.0628272251 L4.79644551,0.0628272251 L11.2885921,0.0628272251 C15.1629377,0.146596859 16.3775973,3.07853403 16.3985398,5.0052356 L16.3985398,5.06806283 L16.3985398,10.7643979 C16.4404246,12.0628272 17.2990633,12.3141361 17.6550843,12.2931937 L23.3933042,12.2931937 L23.7074403,12.2931937 Z M23.3933042,15.0157068 L17.4037754,15.0157068 C16.0844036,14.9947644 13.6341418,13.8429319 13.6341418,10.7853403 L13.6341418,5.13089005 C13.6131994,4.5026178 13.131524,2.80628272 11.1210528,2.78534031 L4.83833033,2.78534031 C3.66555546,2.86910995 2.61843504,3.47643979 2.63906858,5.67539267 L2.63906858,5.80104712 L2.63906858,34.7434555 C2.66031986,35.4136126 2.49278059,37.0052356 4.23100049,37.1308901 L11.8330947,37.1308901 C12.0634612,37.1308901 12.7755031,37.0680628 13.1943513,36.6701571 C13.4666026,36.3979058 13.6131994,35.9790576 13.6131994,35.3717277 L13.6131994,27.539267 C9.96922038,27.2041885 7.72838268,25.7801047 6.93257117,23.2879581 L6.84880153,23.0157068 C6.53466541,21.4450262 6.7650319,20.104712 7.53990101,19.0157068 C8.67079106,17.4031414 10.5346654,17.0680628 10.7440895,17.026178 L10.8697439,17.0052356 C14.1367596,16.565445 16.2728853,18.973822 16.3147701,21.0052356 L16.3147701,21.2356021 L16.3147701,24.8586387 C16.3985398,24.8586387 16.461367,24.8586387 16.5451366,24.8586387 L16.6079638,24.8586387 L22.5556078,24.8586387 C24.0844036,24.9633508 26.3461837,26.1780105 26.3671261,29.0890052 L26.3671261,34.7434555 C26.409011,35.1623037 26.6812623,36.9633508 28.8802151,37.0890052 L35.1629377,37.0890052 C35.9378068,37.0680628 37.3618905,36.6492147 37.3618905,34.1989529 L37.3618905,34.0732984 L37.3618905,5.13089005 C37.3618905,4.77486911 37.4456602,2.76439791 35.7702675,2.7434555 L28.1681733,2.7434555 C27.9378068,2.7434555 27.2257649,2.76439791 26.8069167,3.16230366 C26.5346654,3.43455497 26.3880685,3.89528796 26.3880685,4.48167539 L26.3880685,12.3560209 C30.0320476,12.6910995 32.2728853,14.1151832 33.0686968,16.6073298 L33.1524665,16.8795812 C33.4666026,18.4502618 33.1524665,19.7696335 32.461367,20.8795812 C31.4770738,22.4502618 29.4666026,22.8272251 29.2571785,22.8691099 L29.131524,22.8900524 C25.3200057,23.2041885 23.6864979,20.921466 23.6864979,18.8900524 L23.6864979,18.6596859 L23.6864979,15.0366492 L23.3933042,15.0157068 Z M30.513723,17.4659686 C30.513723,17.4450262 30.513723,17.4450262 30.4927806,17.4240838 C30.0111052,15.9371728 28.3147701,15.3089005 26.409011,15.078534 L26.409011,18.1570681 C26.4299534,19.4136126 27.3095345,20.5026178 28.9011576,20.1675393 C29.0896392,20.1256545 29.8435659,19.9162304 30.2624141,19.3089005 C30.5556078,18.8481675 30.6393774,18.2408377 30.513723,17.4659686 Z M13.6550843,21.7591623 C13.6131994,21.1727749 13.1524665,19.4136126 11.1629377,19.7486911 C10.974456,19.7905759 10.2205293,20 9.80168111,20.6073298 C9.5084874,21.0471204 9.42471776,21.6544503 9.55037221,22.4293194 C9.55037221,22.4502618 9.55037221,22.4502618 9.57131462,22.4712042 C10.05299,23.9581152 11.7493251,24.5863874 13.6550843,24.8167539 L13.6550843,21.7591623 L13.6550843,21.7591623 Z" id="Shape" fill="url(#linearGradient-1)"></path>
                        <g id="Group" transform="translate(51.937173, 5.026178)" fill="#404041">
                            <polygon id="Path" points="9.78010471 0.335078534 9.78010471 11.2041885 7.76963351 11.2041885 7.76963351 6.55497382 2.15706806 6.55497382 2.15706806 11.2041885 0.146596859 11.2041885 0.146596859 0.335078534 2.15706806 0.335078534 2.15706806 4.81675393 7.76963351 4.81675393 7.76963351 0.335078534"></polygon>
                            <path d="M12.2722513,5.78010471 C12.2722513,2.57591623 14.7643979,0.188481675 18.1151832,0.188481675 C21.4659686,0.188481675 23.9581152,2.55497382 23.9581152,5.78010471 C23.9581152,9.0052356 21.4659686,11.3717277 18.1151832,11.3717277 C14.7643979,11.3717277 12.2722513,8.98429319 12.2722513,5.78010471 Z M21.947644,5.78010471 C21.947644,3.56020942 20.3141361,1.96858639 18.1361257,1.96858639 C15.9581152,1.96858639 14.3246073,3.56020942 14.3246073,5.78010471 C14.3246073,8 15.9581152,9.59162304 18.1361257,9.59162304 C20.3141361,9.59162304 21.947644,8 21.947644,5.78010471 Z" id="Shape"></path>
                            <polygon id="Path" points="36.1256545 0.335078534 36.1256545 11.2041885 34.4712042 11.2041885 28.4816754 3.85340314 28.4816754 11.2041885 26.4712042 11.2041885 26.4712042 0.335078534 28.1256545 0.335078534 34.1151832 7.68586387 34.1151832 0.335078534"></polygon>
                            <polygon id="Path" points="47.7696335 9.5078534 47.7696335 11.2041885 39.6230366 11.2041885 39.6230366 0.335078534 47.539267 0.335078534 47.539267 2.03141361 41.6335079 2.03141361 41.6335079 4.85863874 46.8691099 4.85863874 46.8691099 6.51308901 41.6335079 6.51308901 41.6335079 9.5078534 47.7696335 9.5078534"></polygon>
                            <polygon id="Path" points="55.9790576 7.37172775 55.9790576 11.2041885 53.9685864 11.2041885 53.9685864 7.39267016 49.6963351 0.335078534 51.8534031 0.335078534 55.0366492 5.63350785 58.2408377 0.335078534 60.2303665 0.335078534"></polygon>
                            <path d="M61.6125654,10.052356 L62.3036649,8.48167539 C63.1623037,9.17277487 64.5445026,9.67539267 65.8848168,9.67539267 C67.5811518,9.67539267 68.2931937,9.06806283 68.2931937,8.27225131 C68.2931937,5.92670157 61.8429319,7.45549738 61.8429319,3.43455497 C61.8429319,1.67539267 63.2460733,0.188481675 66.2198953,0.188481675 C67.5183246,0.188481675 68.8795812,0.523560209 69.8429319,1.15183246 L69.2146597,2.72251309 C68.2303665,2.15706806 67.1623037,1.86387435 66.2198953,1.86387435 C64.5445026,1.86387435 63.8534031,2.51308901 63.8534031,3.32984293 C63.8534031,5.63350785 70.3036649,4.14659686 70.3036649,8.12565445 C70.3036649,9.86387435 68.9005236,11.3507853 65.9057592,11.3507853 C64.1884817,11.3507853 62.513089,10.8272251 61.6125654,10.052356 Z" id="Path"></path>
                            <path d="M72.9633508,6.47120419 L72.9633508,0.335078534 L74.973822,0.335078534 L74.973822,6.38743455 C74.973822,8.62827225 75.9790576,9.59162304 77.7382199,9.59162304 C79.4973822,9.59162304 80.4816754,8.62827225 80.4816754,6.38743455 L80.4816754,0.335078534 L82.4712042,0.335078534 L82.4712042,6.47120419 C82.4712042,9.63350785 80.6910995,11.3507853 77.7172775,11.3507853 C74.7434555,11.3507853 72.9633508,9.63350785 72.9633508,6.47120419 Z" id="Path"></path>
                            <path d="M85.2984293,5.78010471 C85.2984293,2.53403141 87.7905759,0.188481675 91.1204188,0.188481675 C92.8795812,0.188481675 94.408377,0.816753927 95.4136126,2.0104712 L94.1151832,3.2460733 C93.3193717,2.38743455 92.3560209,1.96858639 91.2041885,1.96858639 C88.9633508,1.96858639 87.3298429,3.56020942 87.3298429,5.78010471 C87.3298429,8.02094241 88.9633508,9.59162304 91.2041885,9.59162304 C92.3350785,9.59162304 93.3193717,9.17277487 94.1151832,8.29319372 L95.4136126,9.52879581 C94.408377,10.7015707 92.8795812,11.3507853 91.0994764,11.3507853 C87.7905759,11.3507853 85.2984293,9.0052356 85.2984293,5.78010471 Z" id="Path"></path>
                            <polygon id="Path" points="102.303665 6.65968586 100.586387 8.41884817 100.586387 11.2041885 98.5759162 11.2041885 98.5759162 0.335078534 100.586387 0.335078534 100.586387 5.90575916 105.947644 0.335078534 108.209424 0.335078534 103.643979 5.19371728 108.481675 11.2041885 106.115183 11.2041885"></polygon>
                            <polygon id="Path" points="111.078534 0.335078534 113.089005 0.335078534 113.089005 9.48691099 118.764398 9.48691099 118.764398 11.2041885 111.057592 11.2041885 111.057592 0.335078534"></polygon>
                            <polygon id="Path" points="129.298429 9.5078534 129.298429 11.2041885 121.151832 11.2041885 121.151832 0.335078534 129.089005 0.335078534 129.089005 2.03141361 123.183246 2.03141361 123.183246 4.85863874 128.418848 4.85863874 128.418848 6.51308901 123.183246 6.51308901 123.183246 9.5078534 129.298429 9.5078534"></polygon>
                        </g>
                        <g id="Group" transform="translate(51.937173, 23.874346)" fill="#404041">
                            <polygon id="Path" points="9.7591623 0.0837696335 9.7591623 10.9528796 7.7486911 10.9528796 7.7486911 6.30366492 2.13612565 6.30366492 2.13612565 10.9528796 0.12565445 10.9528796 0.12565445 0.0837696335 2.13612565 0.0837696335 2.13612565 4.56544503 7.7486911 4.56544503 7.7486911 0.0837696335"></polygon>
                            <polygon id="Path" points="21.591623 9.2565445 21.591623 10.9528796 13.4450262 10.9528796 13.4450262 0.0837696335 21.382199 0.0837696335 21.382199 1.78010471 15.4764398 1.78010471 15.4764398 4.60732984 20.7120419 4.60732984 20.7120419 6.2617801 15.4764398 6.2617801 15.4764398 9.2565445 21.591623 9.2565445"></polygon>
                            <path d="M32.2931937,8.43979058 L26.8691099,8.43979058 L25.8010471,10.9528796 L23.7277487,10.9528796 L28.6073298,0.0837696335 L30.5968586,0.0837696335 L35.4973822,10.9528796 L33.382199,10.9528796 L32.2931937,8.43979058 Z M31.6230366,6.84816754 L29.5706806,2.09424084 L27.539267,6.84816754 L31.6230366,6.84816754 Z" id="Shape"></path>
                            <polygon id="Path" points="37.4450262 0.0837696335 39.4554974 0.0837696335 39.4554974 9.23560209 45.1308901 9.23560209 45.1308901 10.9528796 37.4240838 10.9528796 37.4240838 0.0837696335"></polygon>
                            <polygon id="Path" points="48.921466 1.80104712 45.3193717 1.80104712 45.3193717 0.0837696335 54.5340314 0.0837696335 54.5340314 1.80104712 50.9319372 1.80104712 50.9319372 10.9528796 48.921466 10.9528796 48.921466 1.80104712"></polygon>
                            <polygon id="Path" points="66.4921466 0.0837696335 66.4921466 10.9528796 64.4816754 10.9528796 64.4816754 6.30366492 58.8481675 6.30366492 58.8481675 10.9528796 56.8376963 10.9528796 56.8376963 0.0837696335 58.8481675 0.0837696335 58.8481675 4.56544503 64.460733 4.56544503 64.460733 0.0837696335"></polygon>
                        </g>
                    </g>
                </g>
            </g>
        </g>
    </g>
</svg>